<svg width="40" height="38" viewBox="0 0 40 38" fill="none" xmlns="http://www.w3.org/2000/svg">
<g filter="url(#filter0_b_1_3363)">
<rect width="40" height="38" rx="12" fill="white" fill-opacity="0.5"/>
<path d="M10.375 17.25C10.1429 17.25 9.92038 17.1578 9.75628 16.9937C9.59219 16.8296 9.5 16.6071 9.5 16.375V9.37674C9.5 9.14468 9.59219 8.92212 9.75628 8.75802C9.92038 8.59393 10.1429 8.50174 10.375 8.50174H17.375C17.6071 8.50174 17.8296 8.59393 17.9937 8.75802C18.1578 8.92212 18.25 9.14468 18.25 9.37674V16.375C18.25 16.6071 18.1578 16.8296 17.9937 16.9937C17.8296 17.1578 17.6071 17.25 17.375 17.25H10.375ZM22.625 17.25C22.3929 17.25 22.1704 17.1578 22.0063 16.9937C21.8422 16.8296 21.75 16.6071 21.75 16.375V9.37674C21.75 9.14468 21.8422 8.92212 22.0063 8.75802C22.1704 8.59393 22.3929 8.50174 22.625 8.50174H29.6232C29.8553 8.50174 30.0779 8.59393 30.242 8.75802C30.4061 8.92212 30.4982 9.14468 30.4982 9.37674V16.375C30.4982 16.6071 30.4061 16.8296 30.242 16.9937C30.0779 17.1578 29.8553 17.25 29.6232 17.25H22.625ZM10.375 29.5C10.1429 29.5 9.92038 29.4078 9.75628 29.2437C9.59219 29.0796 9.5 28.8571 9.5 28.625V21.625C9.5 21.3929 9.59219 21.1704 9.75628 21.0063C9.92038 20.8422 10.1429 20.75 10.375 20.75H17.375C17.6071 20.75 17.8296 20.8422 17.9937 21.0063C18.1578 21.1704 18.25 21.3929 18.25 21.625V28.625C18.25 28.8571 18.1578 29.0796 17.9937 29.2437C17.8296 29.4078 17.6071 29.5 17.375 29.5H10.375ZM22.625 29.5C22.3929 29.5 22.1704 29.4078 22.0063 29.2437C21.8422 29.0796 21.75 28.8571 21.75 28.625V21.625C21.75 21.3929 21.8422 21.1704 22.0063 21.0063C22.1704 20.8422 22.3929 20.75 22.625 20.75H29.6232C29.8553 20.75 30.0779 20.8422 30.242 21.0063C30.4061 21.1704 30.4982 21.3929 30.4982 21.625V28.625C30.4982 28.8571 30.4061 29.0796 30.242 29.2437C30.0779 29.4078 29.8553 29.5 29.6232 29.5H22.625Z" fill="#4D4959"/>
</g>
<defs>
<filter id="filter0_b_1_3363" x="-20" y="-20" width="80" height="78" filterUnits="userSpaceOnUse" color-interpolation-filters="sRGB">
<feFlood flood-opacity="0" result="BackgroundImageFix"/>
<feGaussianBlur in="BackgroundImageFix" stdDeviation="10"/>
<feComposite in2="SourceAlpha" operator="in" result="effect1_backgroundBlur_1_3363"/>
<feBlend mode="normal" in="SourceGraphic" in2="effect1_backgroundBlur_1_3363" result="shape"/>
</filter>
</defs>
</svg>
